<svg xmlns="http://www.w3.org/2000/svg" xmlns:xlink="http://www.w3.org/1999/xlink"><defs><symbol id="i-icon-livechat-229eb" viewBox="0 0 15 13"><path fill="%239fbe3b" d="M14.171 10.499c-.202.279-.34.786-.308 1.127l.1 1.043c.033.341-.164.448-.437.236l-.736-.569c-.273-.211-.77-.306-1.103-.211 0 0-.547.155-1.183.155-2.484 0-4.497-1.778-4.497-3.971 0-2.192 2.013-3.97 4.497-3.97 2.483 0 4.497 1.778 4.497 3.97 0 1.042-.83 2.19-.83 2.19zM4.464 8.445c0 .555.089 1.091.25 1.597-.444-.058-.617-.149-.617-.149-.41-.12-1.076-.05-1.451.156l-1.273.698c-.376.206-.583.034-.459-.383l.335-1.135c.123-.416.021-1.047-.226-1.401 0 0-1.02-1.458-1.02-2.781C.003 2.262 2.476.004 5.526.004c2.202 0 4.097 1.179 4.984 2.882l-.041-.002c-3.246 0-6.005 2.495-6.005 5.561z"/></symbol></defs><view id="view-i-icon-livechat-229eb" viewBox="0 0 57.69 50"></view><use id="i-icon-livechat-229eb" xlink:href="#i-icon-livechat-229eb" width="57.69" height="50" x="0" y="0"></use></svg>