<?xml version="1.0" encoding="utf-8"?>
<!DOCTYPE svg PUBLIC "-//W3C//DTD SVG 1.1//EN" "http://www.w3.org/Graphics/SVG/1.1/DTD/svg11.dtd">
<svg version="1.1" baseProfile="full"
 xmlns="http://www.w3.org/2000/svg"
 xmlns:xlink="http://www.w3.org/1999/xlink"
 xmlns:ev="http://www.w3.org/2001/xml-events" 
  height="14px" 
  width="16px" 
  viewBox="0 0 15 13"
>
<path fill="#fff"
 d="M14.171,10.499 C13.969,10.778 13.831,11.285 13.863,11.626 L13.963,12.669 C13.996,13.01 13.799,13.117 13.526,12.905 L12.79,12.336 C12.517,12.125 12.02,12.03 11.687,12.125 C11.687,12.125 11.14,12.28 10.504,12.28 C8.02,12.28 6.007,10.502 6.007,8.309 C6.007,6.117 8.02,4.339 10.504,4.339 C12.987,4.339 15.001,6.117 15.001,8.309 C15.001,9.351 14.171,10.499 14.171,10.499 ZM4.464,8.445 C4.464,9 4.553,9.536 4.714,10.042 C4.27,9.984 4.097,9.893 4.097,9.893 C3.687,9.773 3.021,9.843 2.646,10.049 L1.373,10.747 C0.997,10.953 0.79,10.781 0.914,10.364 L1.249,9.229 C1.372,8.813 1.27,8.182 1.023,7.828 C1.023,7.828 0.003,6.37 0.003,5.047 C0.003,2.262 2.476,0.004 5.526,0.004 C7.728,0.004 9.623,1.183 10.51,2.886 C10.496,2.886 10.483,2.884 10.469,2.884 C7.223,2.884 4.464,5.379 4.464,8.445 Z "/>
</svg>

